HIERARCHY
ROOT Hips
{
	OFFSET -339.306915 540.749023 89.171944
	CHANNELS 6 Xposition Yposition Zposition Zrotation Yrotation Xrotation
	JOINT Spine
	{
		OFFSET 0.000000 2.080078 8.814247
		CHANNELS 6 Xposition Yposition Zposition Zrotation Yrotation Xrotation
		JOINT Spine1
		{
			OFFSET 0.000000 0.000000 8.844139
			CHANNELS 6 Xposition Yposition Zposition Zrotation Yrotation Xrotation
			JOINT Spine2
			{
				OFFSET 0.000000 0.000000 11.682266
				CHANNELS 6 Xposition Yposition Zposition Zrotation Yrotation Xrotation
				JOINT Spine3
				{
					OFFSET 0.000000 0.000000 11.746696
					CHANNELS 6 Xposition Yposition Zposition Zrotation Yrotation Xrotation
					JOINT Neck
					{
						OFFSET 0.000000 0.000000 17.658264
						CHANNELS 6 Xposition Yposition Zposition Zrotation Yrotation Xrotation
						JOINT Neck1
						{
							OFFSET 0.000000 0.000000 5.101517
							CHANNELS 6 Xposition Yposition Zposition Zrotation Yrotation Xrotation
							JOINT Head
							{
								OFFSET 0.000000 0.000000 5.101517
								CHANNELS 6 Xposition Yposition Zposition Zrotation Yrotation Xrotation
								JOINT HeadEnd
								{
									OFFSET 0.000000 0.000000 11.655090
									CHANNELS 6 Xposition Yposition Zposition Zrotation Yrotation Xrotation
									End Site
									{
										OFFSET 0.000000 0.000000 0.100006
									}
								}
							}
						}
					}
					JOINT RightShoulder
					{
						OFFSET -2.625397 0.000000 11.175217
						CHANNELS 6 Xposition Yposition Zposition Zrotation Yrotation Xrotation
						JOINT RightArm
						{
							OFFSET 0.000000 0.000000 10.434708
							CHANNELS 6 Xposition Yposition Zposition Zrotation Yrotation Xrotation
							JOINT RightForeArm
							{
								OFFSET 0.000000 0.000000 29.628418
								CHANNELS 6 Xposition Yposition Zposition Zrotation Yrotation Xrotation
								JOINT RightHand
								{
									OFFSET 0.000000 0.000000 22.857605
									CHANNELS 6 Xposition Yposition Zposition Zrotation Yrotation Xrotation
									JOINT RightHandThumb1
									{
										OFFSET -2.867310 -2.944275 3.959564
										CHANNELS 6 Xposition Yposition Zposition Zrotation Yrotation Xrotation
										JOINT RightHandThumb2
										{
											OFFSET 0.000000 0.000000 3.350403
											CHANNELS 6 Xposition Yposition Zposition Zrotation Yrotation Xrotation
											JOINT RightHandThumb3
											{
												OFFSET 0.000000 0.000000 3.756516
												CHANNELS 6 Xposition Yposition Zposition Zrotation Yrotation Xrotation
												JOINT RightHandThumb4
												{
													OFFSET 0.000000 0.000000 3.147339
													CHANNELS 6 Xposition Yposition Zposition Zrotation Yrotation Xrotation
													End Site
													{
														OFFSET 0.000000 0.000000 0.100006
													}
												}
											}
										}
									}
									JOINT RightHandIndex1
									{
										OFFSET -0.086761 -2.345276 10.030899
										CHANNELS 6 Xposition Yposition Zposition Zrotation Yrotation Xrotation
										JOINT RightHandIndex2
										{
											OFFSET 0.000000 0.000000 4.061096
											CHANNELS 6 Xposition Yposition Zposition Zrotation Yrotation Xrotation
											JOINT RightHandIndex3
											{
												OFFSET 0.000000 0.000000 3.248871
												CHANNELS 6 Xposition Yposition Zposition Zrotation Yrotation Xrotation
												JOINT RightHandIndex4
												{
													OFFSET 0.000000 0.000000 2.639709
													CHANNELS 6 Xposition Yposition Zposition Zrotation Yrotation Xrotation
													End Site
													{
														OFFSET 0.000000 0.000000 0.100006
													}
												}
											}
										}
									}
									JOINT RightHandMiddle1
									{
										OFFSET 0.104095 -0.006775 9.502945
										CHANNELS 6 Xposition Yposition Zposition Zrotation Yrotation Xrotation
										JOINT RightHandMiddle2
										{
											OFFSET 0.000000 0.000000 4.568726
											CHANNELS 6 Xposition Yposition Zposition Zrotation Yrotation Xrotation
											JOINT RightHandMiddle3
											{
												OFFSET 0.000000 0.000000 3.654984
												CHANNELS 6 Xposition Yposition Zposition Zrotation Yrotation Xrotation
												JOINT RightHandMiddle4
												{
													OFFSET 0.000000 0.000000 2.741241
													CHANNELS 6 Xposition Yposition Zposition Zrotation Yrotation Xrotation
													End Site
													{
														OFFSET 0.000000 0.000000 0.100006
													}
												}
											}
										}
									}
									JOINT RightHandRing1
									{
										OFFSET 0.086761 2.267456 8.921707
										CHANNELS 6 Xposition Yposition Zposition Zrotation Yrotation Xrotation
										JOINT RightHandRing2
										{
											OFFSET 0.000000 0.000000 4.061096
											CHANNELS 6 Xposition Yposition Zposition Zrotation Yrotation Xrotation
											JOINT RightHandRing3
											{
												OFFSET 0.000000 0.000000 3.654984
												CHANNELS 6 Xposition Yposition Zposition Zrotation Yrotation Xrotation
												JOINT RightHandRing4
												{
													OFFSET 0.000000 0.000000 2.741241
													CHANNELS 6 Xposition Yposition Zposition Zrotation Yrotation Xrotation
													End Site
													{
														OFFSET 0.000000 0.000000 0.100006
													}
												}
											}
										}
									}
									JOINT RightHandPinky1
									{
										OFFSET -0.173492 4.467224 7.976990
										CHANNELS 6 Xposition Yposition Zposition Zrotation Yrotation Xrotation
										JOINT RightHandPinky2
										{
											OFFSET 0.000000 0.000000 3.350403
											CHANNELS 6 Xposition Yposition Zposition Zrotation Yrotation Xrotation
											JOINT RightHandPinky3
											{
												OFFSET 0.000000 0.000000 2.842758
												CHANNELS 6 Xposition Yposition Zposition Zrotation Yrotation Xrotation
												JOINT RightHandPinky4
												{
													OFFSET 0.000000 0.000000 2.639709
													CHANNELS 6 Xposition Yposition Zposition Zrotation Yrotation Xrotation
													End Site
													{
														OFFSET 0.000000 0.000000 0.100006
													}
												}
											}
										}
									}
									JOINT RightForeArmEnd
									{
										OFFSET 0.000000 0.000000 0.000000
										CHANNELS 6 Xposition Yposition Zposition Zrotation Yrotation Xrotation
										End Site
										{
											OFFSET 0.000000 0.000000 0.100006
										}
									}
								}
								JOINT RightArmEnd
								{
									OFFSET 0.000000 0.000000 0.000000
									CHANNELS 6 Xposition Yposition Zposition Zrotation Yrotation Xrotation
									End Site
									{
										OFFSET 0.000000 0.000000 0.100006
									}
								}
							}
						}
					}
					JOINT LeftShoulder
					{
						OFFSET 2.625397 0.000000 11.175217
						CHANNELS 6 Xposition Yposition Zposition Zrotation Yrotation Xrotation
						JOINT LeftArm
						{
							OFFSET 0.000000 0.000000 10.813629
							CHANNELS 6 Xposition Yposition Zposition Zrotation Yrotation Xrotation
							JOINT LeftForeArm
							{
								OFFSET 0.000000 0.000000 28.724777
								CHANNELS 6 Xposition Yposition Zposition Zrotation Yrotation Xrotation
								JOINT LeftHand
								{
									OFFSET 0.644379 0.328857 25.716171
									CHANNELS 6 Xposition Yposition Zposition Zrotation Yrotation Xrotation
									JOINT LeftHandThumb1
									{
										OFFSET 2.867310 -2.944275 3.959564
										CHANNELS 6 Xposition Yposition Zposition Zrotation Yrotation Xrotation
										JOINT LeftHandThumb2
										{
											OFFSET 0.000000 0.000000 3.350403
											CHANNELS 6 Xposition Yposition Zposition Zrotation Yrotation Xrotation
											JOINT LeftHandThumb3
											{
												OFFSET 0.000000 0.000000 3.756516
												CHANNELS 6 Xposition Yposition Zposition Zrotation Yrotation Xrotation
												JOINT LeftHandThumb4
												{
													OFFSET 0.000000 0.000000 3.100006
													CHANNELS 6 Xposition Yposition Zposition Zrotation Yrotation Xrotation
													End Site
													{
														OFFSET 0.000000 0.000000 0.100006
													}
												}
											}
										}
									}
									JOINT LeftHandIndex1
									{
										OFFSET 0.086761 -2.345276 10.030899
										CHANNELS 6 Xposition Yposition Zposition Zrotation Yrotation Xrotation
										JOINT LeftHandIndex2
										{
											OFFSET 0.000000 0.000000 4.061096
											CHANNELS 6 Xposition Yposition Zposition Zrotation Yrotation Xrotation
											JOINT LeftHandIndex3
											{
												OFFSET 0.000000 0.000000 3.248871
												CHANNELS 6 Xposition Yposition Zposition Zrotation Yrotation Xrotation
												JOINT LeftHandIndex4
												{
													OFFSET 0.000000 0.000000 2.639709
													CHANNELS 6 Xposition Yposition Zposition Zrotation Yrotation Xrotation
													End Site
													{
														OFFSET 0.000000 0.000000 0.100006
													}
												}
											}
										}
									}
									JOINT LeftHandMiddle1
									{
										OFFSET -0.104095 -0.006775 9.502945
										CHANNELS 6 Xposition Yposition Zposition Zrotation Yrotation Xrotation
										JOINT LeftHandMiddle2
										{
											OFFSET 0.000000 0.000000 4.568726
											CHANNELS 6 Xposition Yposition Zposition Zrotation Yrotation Xrotation
											JOINT LeftHandMiddle3
											{
												OFFSET 0.000000 0.000000 3.654984
												CHANNELS 6 Xposition Yposition Zposition Zrotation Yrotation Xrotation
												JOINT LeftHandMiddle4
												{
													OFFSET 0.000000 0.000000 2.741241
													CHANNELS 6 Xposition Yposition Zposition Zrotation Yrotation Xrotation
													End Site
													{
														OFFSET 0.000000 0.000000 0.100006
													}
												}
											}
										}
									}
									JOINT LeftHandRing1
									{
										OFFSET -0.086761 2.267456 8.921707
										CHANNELS 6 Xposition Yposition Zposition Zrotation Yrotation Xrotation
										JOINT LeftHandRing2
										{
											OFFSET 0.000000 0.000000 4.061096
											CHANNELS 6 Xposition Yposition Zposition Zrotation Yrotation Xrotation
											JOINT LeftHandRing3
											{
												OFFSET 0.000000 0.000000 3.654984
												CHANNELS 6 Xposition Yposition Zposition Zrotation Yrotation Xrotation
												JOINT LeftHandRing4
												{
													OFFSET 0.000000 0.000000 2.741241
													CHANNELS 6 Xposition Yposition Zposition Zrotation Yrotation Xrotation
													End Site
													{
														OFFSET 0.000000 0.000000 0.100006
													}
												}
											}
										}
									}
									JOINT LeftHandPinky1
									{
										OFFSET 0.173492 4.467224 7.976990
										CHANNELS 6 Xposition Yposition Zposition Zrotation Yrotation Xrotation
										JOINT LeftHandPinky2
										{
											OFFSET 0.000000 0.000000 3.350403
											CHANNELS 6 Xposition Yposition Zposition Zrotation Yrotation Xrotation
											JOINT LeftHandPinky3
											{
												OFFSET 0.000000 0.000000 2.842758
												CHANNELS 6 Xposition Yposition Zposition Zrotation Yrotation Xrotation
												JOINT LeftHandPinky4
												{
													OFFSET 0.000000 0.000000 2.639709
													CHANNELS 6 Xposition Yposition Zposition Zrotation Yrotation Xrotation
													End Site
													{
														OFFSET 0.000000 0.000000 0.100006
													}
												}
											}
										}
									}
									JOINT LeftForeArmEnd
									{
										OFFSET 0.000000 0.000000 0.000000
										CHANNELS 6 Xposition Yposition Zposition Zrotation Yrotation Xrotation
										End Site
										{
											OFFSET 0.000000 0.000000 0.100006
										}
									}
								}
								JOINT LeftArmEnd
								{
									OFFSET 0.000000 0.000000 0.000000
									CHANNELS 6 Xposition Yposition Zposition Zrotation Yrotation Xrotation
									End Site
									{
										OFFSET 0.000000 0.000000 0.100006
									}
								}
							}
						}
					}
				}
			}
		}
	}
	JOINT RightUpLeg
	{
		OFFSET -11.289948 0.000000 0.000000
		CHANNELS 6 Xposition Yposition Zposition Zrotation Yrotation Xrotation
		JOINT RightLeg
		{
			OFFSET 0.000000 0.000000 -38.200329
			CHANNELS 6 Xposition Yposition Zposition Zrotation Yrotation Xrotation
			JOINT RightFoot
			{
				OFFSET 0.000000 0.000000 -39.900856
				CHANNELS 6 Xposition Yposition Zposition Zrotation Yrotation Xrotation
				JOINT RightToeBase
				{
					OFFSET 0.000000 -15.261658 0.000001
					CHANNELS 6 Xposition Yposition Zposition Zrotation Yrotation Xrotation
					JOINT RightToeBaseEnd
					{
						OFFSET 0.000000 -7.370728 0.000001
						CHANNELS 6 Xposition Yposition Zposition Zrotation Yrotation Xrotation
						End Site
						{
							OFFSET 0.000000 0.000000 0.100000
						}
					}
				}
				JOINT RightLegEnd
				{
					OFFSET 0.000000 0.000000 0.000000
					CHANNELS 6 Xposition Yposition Zposition Zrotation Yrotation Xrotation
					End Site
					{
						OFFSET 0.000000 0.000000 0.100000
					}
				}
			}
			JOINT RightUpLegEnd
			{
				OFFSET 0.000000 0.000000 0.000000
				CHANNELS 6 Xposition Yposition Zposition Zrotation Yrotation Xrotation
				End Site
				{
					OFFSET 0.000000 0.000000 0.099998
				}
			}
		}
	}
	JOINT LeftUpLeg
	{
		OFFSET 11.315674 0.000000 0.000000
		CHANNELS 6 Xposition Yposition Zposition Zrotation Yrotation Xrotation
		JOINT LeftLeg
		{
			OFFSET 0.000000 0.000000 -38.200329
			CHANNELS 6 Xposition Yposition Zposition Zrotation Yrotation Xrotation
			JOINT LeftFoot
			{
				OFFSET 0.000000 0.000000 -39.900856
				CHANNELS 6 Xposition Yposition Zposition Zrotation Yrotation Xrotation
				JOINT LeftToeBase
				{
					OFFSET 0.000000 -15.261658 0.000001
					CHANNELS 6 Xposition Yposition Zposition Zrotation Yrotation Xrotation
					JOINT LeftToeBaseEnd
					{
						OFFSET 0.000000 -7.539978 0.000001
						CHANNELS 6 Xposition Yposition Zposition Zrotation Yrotation Xrotation
						End Site
						{
							OFFSET 0.000000 0.000000 0.100000
						}
					}
				}
				JOINT LeftLegEnd
				{
					OFFSET 0.000000 0.000000 0.000000
					CHANNELS 6 Xposition Yposition Zposition Zrotation Yrotation Xrotation
					End Site
					{
						OFFSET 0.000000 0.000000 0.100000
					}
				}
			}
			JOINT LeftUpLegEnd
			{
				OFFSET 0.000000 0.000000 0.000000
				CHANNELS 6 Xposition Yposition Zposition Zrotation Yrotation Xrotation
				End Site
				{
					OFFSET 0.000000 0.000000 0.099998
				}
			}
		}
	}
}
MOTION
Frames: 2
Frame Time: 0.016667
32.695953 -72.882446 88.182503 -9.692241 0.112469 -1.047123 0.000000 2.080054 8.814246 0.518388 2.323353 7.848552 0.000007 -0.000017 8.844135 0.332392 -0.117975 3.825623 -0.000031 -0.000013 11.682272 3.103344 0.034788 8.378649 0.000005 0.000021 11.746699 0.941606 -0.418235 6.686316 0.000015 -0.000027 17.658304 -0.277194 1.030491 2.169912 0.000014 0.000001 5.101514 -2.268605 1.372286 -5.085584 0.000006 0.000033 5.101548 0.614650 -0.156857 -15.451025 -0.000005 0.000002 11.655087 -0.000000 -0.000000 -0.000000 -2.625404 -0.000008 11.175226 13.549673 -76.176027 0.611897 -0.000015 0.000006 10.434711 -63.416695 -62.017366 69.201148 0.000011 0.000000 29.628439 22.014536 1.040087 108.279269 0.000019 -0.000046 22.857605 -20.456458 0.005088 -32.519022 -2.867302 -2.944275 3.959541 33.203025 -11.604774 61.042575 -0.000001 -0.000074 3.350400 -0.590040 0.577948 -1.183755 -0.000009 -0.000012 3.756530 -0.408474 0.402465 -0.819904 0.000003 -0.000003 3.147336 0.000000 0.000001 -0.000003 -0.086759 -2.345287 10.030853 16.274259 31.240052 26.454888 -0.000010 -0.000086 4.061115 -0.549197 0.000016 -0.000206 0.000006 -0.000028 3.248864 -0.057595 -0.000003 0.002623 0.000015 -0.000002 2.639715 0.000000 0.000000 0.000000 0.104095 -0.006775 9.502960 11.112917 33.849014 18.597200 -0.000010 -0.000015 4.568731 -0.500841 -0.048551 0.000498 0.000004 -0.000005 3.654967 -0.002702 0.027039 -0.000045 0.000031 -0.000014 2.741261 0.000003 -0.000001 0.000001 0.086767 2.267454 8.921696 1.694077 35.941808 6.128138 0.000018 -0.000001 4.061065 1.015566 -0.000500 -0.001630 -0.000008 -0.000029 3.655003 0.036516 0.000399 -0.001190 0.000011 0.000012 2.741227 -0.000002 0.000000 -0.000000 -0.173496 4.467208 7.976978 -8.875068 33.089517 -5.693668 -0.000004 -0.000004 3.350414 2.001769 -0.000067 -0.000048 0.000006 -0.000009 2.842762 0.001648 -0.000005 -0.000019 -0.000015 -0.000000 2.639698 0.000001 -0.000000 0.000001 -0.000014 0.000016 -0.000023 -0.000002 0.000001 0.000003 0.000001 0.000059 0.000009 0.000001 -0.000001 -0.000000 2.625401 -0.000021 11.175259 -15.440271 78.911669 -0.182514 0.000038 -0.000012 10.813599 62.512487 64.394743 59.747271 0.000004 0.000038 28.724773 -22.804352 -0.576706 102.266565 0.644350 0.328776 25.716164 -6.633475 -32.399675 6.493471 2.867321 -2.944244 3.959549 -31.969947 15.218348 54.724989 -0.000002 -0.000004 3.350437 8.189156 -6.261745 -15.233338 0.000036 0.000029 3.756527 5.506900 -4.583293 -10.473303 -0.000011 0.000057 3.099998 0.000001 0.000002 -0.000000 0.086750 -2.345209 10.030886 7.758087 -5.043739 6.989844 -0.000004 -0.000022 4.061098 -0.514895 0.027967 -0.000235 -0.000006 -0.000056 3.248879 -0.014013 -0.015623 0.000006 0.000004 0.000020 2.639738 -0.000003 -0.000000 -0.000000 -0.104094 -0.006706 9.502932 2.807358 -4.174630 4.080473 -0.000006 -0.000026 4.568727 -0.515786 0.000102 0.000011 0.000006 0.000010 3.655004 -0.013572 0.000008 -0.000960 0.000009 -0.000002 2.741266 0.000000 -0.000000 -0.000000 -0.086749 2.267482 8.921716 -4.945169 -2.641102 -1.588764 0.000002 0.000004 4.061096 1.008529 0.000003 0.004935 -0.000006 0.000027 3.654987 0.231562 -0.000001 -0.003183 0.000005 -0.000004 2.741270 0.000001 -0.000000 -0.000000 0.173492 4.467295 7.976997 -13.078122 -3.026562 -7.997005 0.000008 -0.000002 3.350415 2.009373 -0.000010 -0.000004 0.000004 0.000035 2.842751 0.276142 0.000003 -0.000009 0.000030 -0.000005 2.639718 0.000000 0.000001 0.000000 0.000000 0.000065 0.000004 -0.000001 0.000000 0.000000 -0.000019 -0.000001 0.000010 -0.000000 -0.000001 -0.000001 -11.289950 0.000037 -0.000008 1.465500 6.307810 -3.521691 0.000005 0.000019 -38.200317 -1.074217 0.179978 9.513413 -0.000006 0.000009 -39.900833 -3.142220 -2.700194 19.408088 -0.000003 -15.261642 -0.000004 1.916080 0.306395 -21.219093 -0.000013 -7.370602 0.000002 -0.000001 0.000001 0.000000 0.000001 0.000060 -0.000005 0.000000 0.000000 0.000001 -0.000010 -0.000002 0.000004 0.000000 0.000000 0.000000 11.315622 0.000112 -0.000021 19.340236 -7.673730 -2.817977 -0.000001 0.000088 -38.200333 1.284103 -0.102321 4.555286 -0.000011 0.000002 -39.900871 8.714864 5.557219 25.257495 0.000011 -15.261622 0.000002 -2.644531 -0.538707 -20.960093 0.000011 -7.539909 0.000004 -0.000001 0.000000 -0.000000 0.000034 -0.000059 0.000000 -0.000000 0.000000 -0.000001 -0.000001 0.000002 -0.000012 -0.000000 0.000000 -0.000000 
32.614319 -73.131165 88.241913 -9.754661 0.103198 -1.654860 0.000006 2.080135 8.814246 0.535699 2.271750 7.838335 -0.000030 -0.000026 8.844151 0.317964 -0.154937 3.713610 -0.000018 0.000000 11.682273 3.069098 0.014603 8.499660 -0.000010 -0.000086 11.746678 0.936156 -0.482366 6.626590 0.000028 0.000029 17.658268 0.073634 1.478075 2.238862 -0.000045 -0.000020 5.101506 -1.999770 1.371961 -5.059724 0.000000 0.000037 5.101525 0.596732 -0.056849 -15.518472 -0.000004 -0.000002 11.655077 0.000000 0.000000 0.000000 -2.625381 0.000000 11.175220 13.151314 -76.975604 0.566500 0.000000 -0.000015 10.434711 -61.557073 -62.786063 67.226793 0.000008 0.000015 29.628460 22.125995 1.099234 108.072212 -0.000004 0.000053 22.857586 -16.914914 -0.155773 -31.622833 -2.867310 -2.944290 3.959557 33.134204 -11.752122 60.762934 -0.000006 0.000015 3.350413 -0.889511 0.862355 -1.776121 -0.000014 0.000030 3.756519 -0.614882 0.601799 -1.231990 -0.000001 -0.000006 3.147330 -0.000000 -0.000000 -0.000001 -0.086756 -2.345264 10.030945 15.899695 30.078808 24.692532 0.000013 -0.000060 4.061097 -0.547583 -0.000093 -0.000192 -0.000010 -0.000010 3.248852 -0.055838 0.000007 0.002465 -0.000001 0.000007 2.639695 -0.000001 -0.000001 0.000001 0.104102 -0.006783 9.502960 10.565365 32.035988 17.168592 0.000006 -0.000009 4.568735 -0.499670 -0.000029 0.000064 -0.000005 -0.000004 3.654975 -0.001622 0.000031 -0.000038 0.000006 -0.000004 2.741259 0.000000 -0.000000 0.000000 0.086767 2.267487 8.921726 1.149260 33.102440 5.236472 -0.000023 0.000023 4.061100 1.013060 -0.000414 -0.001253 0.000038 0.000019 3.654968 0.030917 0.000339 -0.000910 -0.000013 -0.000012 2.741246 0.000000 -0.000002 0.000002 -0.173485 4.467235 7.976994 -9.127171 29.651306 -5.724202 -0.000011 0.000004 3.350418 2.001242 -0.000000 -0.000040 -0.000008 0.000017 2.842744 0.001161 -0.000010 -0.000015 -0.000011 0.000011 2.639716 -0.000002 0.000000 0.000000 -0.000005 -0.000016 -0.000003 0.000004 0.000001 0.000001 0.000003 0.000055 0.000023 0.000001 -0.000002 0.000000 2.625412 0.000003 11.175225 -15.013729 79.586423 -0.201986 0.000008 -0.000005 10.813667 61.559170 65.783458 58.874789 -0.000023 -0.000008 28.724731 -22.929703 -0.653698 102.222380 0.644356 0.328817 25.716156 -6.913808 -30.649740 5.938891 2.867306 -2.944275 3.959602 -31.933160 15.385286 54.454930 -0.000008 0.000023 3.350418 8.550980 -6.464780 -15.863225 0.000000 -0.000015 3.756504 5.744562 -4.744954 -10.902205 -0.000006 -0.000005 3.100015 0.000000 0.000001 0.000002 0.086746 -2.345259 10.030880 7.896221 -4.237777 7.822926 0.000010 0.000023 4.061124 -0.510838 0.027965 -0.000241 0.000014 -0.000059 3.248894 -0.010192 -0.015633 0.000004 -0.000013 -0.000005 2.639720 0.000001 -0.000001 -0.000000 -0.104095 -0.006758 9.502945 3.005687 -3.043895 4.523719 0.000011 -0.000030 4.568768 -0.511943 0.000038 0.000007 -0.000014 -0.000014 3.654980 -0.010268 0.000007 -0.000729 0.000008 0.000007 2.741265 -0.000001 -0.000001 -0.000000 -0.086765 2.267438 8.921696 -4.620979 -0.822654 -1.605352 -0.000001 -0.000019 4.061103 1.007374 -0.000004 0.000005 0.000005 0.000029 3.655003 0.229723 -0.000002 -0.005990 0.000002 0.000003 2.741241 -0.000001 -0.000000 0.000000 0.173496 4.467228 7.976980 -12.617726 -0.649369 -8.717208 -0.000003 -0.000030 3.350426 2.011167 0.922469 -0.178908 -0.000010 0.000009 2.842757 0.274890 0.921010 -0.174770 0.000002 -0.000001 2.639730 -0.000000 -0.000000 0.000001 0.000001 -0.000001 0.000002 0.000000 0.000000 -0.000000 -0.000036 0.000015 0.000024 -0.000003 -0.000001 -0.000000 -11.289957 0.000010 0.000000 1.439891 6.272412 -2.727495 -0.000004 0.000024 -38.200317 -1.115686 0.185337 9.430767 -0.000013 0.000010 -39.900829 -2.943623 -2.682825 19.559365 0.000017 -15.261652 -0.000013 1.916510 0.327821 -21.390231 -0.000007 -7.370662 0.000001 -0.000001 0.000000 -0.000000 0.000005 0.000062 -0.000008 -0.000000 0.000000 0.000001 0.000003 -0.000003 0.000003 0.000000 0.000000 0.000000 11.315640 0.000029 -0.000011 19.211302 -7.956211 -2.101929 -0.000003 0.000098 -38.200333 1.347889 -0.108765 4.612551 -0.000003 0.000030 -39.900879 8.791967 5.701459 25.447263 0.000009 -15.261648 -0.000004 -2.671595 -0.597312 -21.210142 0.000001 -7.539984 0.000002 0.000001 0.000000 -0.000000 0.000004 -0.000013 -0.000002 0.000002 -0.000001 0.000002 -0.000004 -0.000001 -0.000002 0.000000 -0.000000 -0.000000 
